<svg xmlns="http://www.w3.org/2000/svg" xmlns:xlink="http://www.w3.org/1999/xlink" version="1.1" x="0px" y="0px" viewBox="0 0 100 100" enable-background="new 0 0 100 100" xml:space="preserve" fill="#323a45" height="18"><path d="M91.8,21.8H81.6v-5.7c0-1.7-1.5-3.2-3.3-3.2H8.1c-1.7,0-3.1,1.5-3.1,3.2v61.1c0,5.4,4.5,9.9,9.9,9.9h70.2  c5.4-0.1,9.9-4.4,9.9-9.9V24.9C95,23.2,93.6,21.8,91.8,21.8L91.8,21.8z M14.9,80.6c-1.9,0-3.4-1.5-3.4-3.4V19.4h63.7v57.8  c0,1.1,0.2,2.3,0.6,3.4H14.9z M88.5,77.2c0,1.9-1.5,3.4-3.5,3.4c-1.9,0-3.5-1.5-3.5-3.4v-49h7V77.2z M45.5,54.7h23.2v-5.7H45.5V54.7  z M45.5,69.5h23.2v-5.7H45.5V69.5z M17.8,28.6V40h50.9V28.6H17.8z M17.8,69.5h21.5V49.1H17.8V69.5z"></path></svg>
