<svg xmlns="http://www.w3.org/2000/svg" xmlns:xlink="http://www.w3.org/1999/xlink" version="1.1" x="0px" y="0px" viewBox="0 0 100 100" enable-background="new 0 0 100 100" xml:space="preserve"><path d="M86,39.5V28.9c0-0.3,0-0.9-0.3-1.5c-0.3-0.5-0.6-1.1-0.9-1.3L66.3,7.5C66.1,7.3,65.7,7,65,6.7c-0.6-0.3-1.3-0.3-1.5-0.3  H25.2c-2.1,0-4,1.8-4,4v15.2C12.3,25.7,5,32,5,39.6v39.9c0,7.8,7.5,14.1,16.7,14.1h69.4c2.2,0,3.9-1.7,3.9-3.9V43.5  c0-2.1-1.7-4-3.9-4H86z M30.5,79.5c0,3.4-4.1,6.3-8.8,6.3c-4.8,0-8.9-3-8.9-6.3V39.6c0-3.4,4-6.3,8.9-6.3c4.8,0,8.8,2.9,8.8,6.3  V79.5z M29.1,14.2h30.5v14.7c0,2.1,1.7,3.9,3.9,3.9h14.6v6.6H38.2C38.2,34,34.5,29.3,29.1,27V14.2z M51.3,79.9  c-1.6,0-3.1-1.4-3.1-3.2c0-1.7,1.5-3.1,3.1-3.1c1.7,0,3.2,1.4,3.2,3.1C54.5,78.5,53.1,79.9,51.3,79.9L51.3,79.9z M51.3,69.6  c-1.6,0-3.1-1.4-3.1-3.2c0-1.7,1.5-3.1,3.1-3.1c1.7,0,3.2,1.4,3.2,3.1C54.5,68.2,53.1,69.6,51.3,69.6L51.3,69.6z M51.3,59.4  c-1.6,0-3.1-1.5-3.1-3.2s1.5-3.2,3.1-3.2c1.7,0,3.2,1.5,3.2,3.2S53.1,59.4,51.3,59.4L51.3,59.4z M63.4,79.9c-1.7,0-3.1-1.4-3.1-3.2  c0-1.7,1.3-3.1,3.1-3.1c1.7,0,3.1,1.4,3.1,3.1C66.5,78.5,65.2,79.9,63.4,79.9L63.4,79.9z M63.4,69.6c-1.7,0-3.1-1.4-3.1-3.2  c0-1.7,1.3-3.1,3.1-3.1c1.7,0,3.1,1.4,3.1,3.1C66.5,68.2,65.2,69.6,63.4,69.6L63.4,69.6z M63.4,59.4c-1.7,0-3.1-1.5-3.1-3.2  s1.3-3.2,3.1-3.2c1.7,0,3.1,1.5,3.1,3.2S65.2,59.4,63.4,59.4L63.4,59.4z M75.5,79.9c-1.7,0-3.1-1.4-3.1-3.2c0-1.7,1.3-3.1,3.1-3.1  c1.7,0,3.2,1.4,3.2,3.1C78.7,78.5,77.3,79.9,75.5,79.9L75.5,79.9z M75.5,69.6c-1.7,0-3.1-1.4-3.1-3.2c0-1.7,1.3-3.1,3.1-3.1  c1.7,0,3.2,1.4,3.2,3.1C78.7,68.2,77.3,69.6,75.5,69.6L75.5,69.6z M75.5,59.4c-1.7,0-3.1-1.5-3.1-3.2s1.3-3.2,3.1-3.2  c1.7,0,3.2,1.5,3.2,3.2S77.3,59.4,75.5,59.4z"></path></svg>