<svg xmlns="http://www.w3.org/2000/svg" xmlns:xlink="http://www.w3.org/1999/xlink" version="1.1" x="0px" y="0px" viewBox="0 0 100 100" enable-background="new 0 0 100 100" xml:space="preserve" fill="#323a45" height="18"><path d="M34.2,71.7c-3.1,0-5.8-2.5-5.8-5.8c0-1.9-1.5-3.3-3.5-3.3c-1.8,0-3.4,1.5-3.4,3.3c0,7.1,5.8,12.8,12.7,12.8  c7.1,0,12.8-5.7,12.8-12.8c0-4.7-2.8-8.9-6.8-11.1l6-7.5c0.8-1.1,0.9-2.4,0.4-3.7c-0.6-1.2-1.8-1.9-3.1-1.9H24.9  c-1.8,0-3.4,1.5-3.4,3.4c0,1.9,1.6,3.5,3.4,3.5h11.4l-4.8,6c-0.2,0.3-0.5,0.6-0.5,1.2C31,55.9,31,55.9,31,56  c-0.2,0.3-0.3,0.5-0.3,0.9c0,0.1,0.1,0.1,0.1,0.1c0,0.2,0,0.2,0,0.2c0.1,0.5,0.3,0.8,0.5,1.2c0,0,0,0.1,0.1,0.1  c0.2,0.3,0.3,0.7,0.7,0.9c0.1,0.1,0.1,0.1,0.1,0.1h0.1c0.2,0.2,0.5,0.5,0.9,0.6c0,0,0,0.1,0.1,0.1c0.3,0.1,0.8,0.1,1,0.1  c3.3,0,5.8,2.6,5.8,5.7C40.1,69.2,37.5,71.7,34.2,71.7L34.2,71.7z M65.7,78.8c7.1,0,12.8-5.7,12.8-12.8V54.5  c0-7.1-5.7-12.7-12.8-12.7c-7,0-12.8,5.6-12.8,12.7V66C52.9,73.1,58.7,78.8,65.7,78.8L65.7,78.8z M59.9,54.5c0-3.3,2.7-5.8,5.8-5.8  c3.2,0,5.9,2.6,5.9,5.8V66c0,3.3-2.7,5.8-5.9,5.8c-3,0-5.8-2.5-5.8-5.8V54.5z M91.6,5H8.4C6.6,5,5,6.6,5,8.4V29v62.5  C5,93.4,6.6,95,8.4,95h83.1c1.9,0,3.5-1.6,3.5-3.5V29V8.4C95,6.6,93.4,5,91.6,5L91.6,5z M88.1,88.1H11.9V32.4h76.2V88.1z"></path></svg>
