<svg xmlns="http://www.w3.org/2000/svg" xmlns:xlink="http://www.w3.org/1999/xlink" version="1.1" x="0px" y="0px" viewBox="0 0 100 100" enable-background="new 0 0 100 100" xml:space="preserve"><path d="M14.5,83.1l24.3-14l-2.2-3.7l-24.2,14L14.5,83.1z M88.9,24.9c-1.6-2.7-3.5-4.9-6.2-6.2c-9-4.4-25.6-0.5-45.3,10.8  c-0.1,0.1-0.4,0.3-0.4,0.3C17.2,41.1,5.6,53.6,5,63.5c-0.2,3,0.7,5.9,2.3,8.6v0.1c0.6,1.1,1.4,2,2.2,2.8l24.8-14.3  c-0.4-1.1-0.8-2.3-1.5-3.4c-1.3-2.4-3.4-4.2-5.6-5.5c4.7-3.9,10.2-7.8,16.4-11.4c6-3.4,12-6.2,17.6-8.4c0,2.6,0.7,5.3,2.1,7.7  c0.5,1.1,1.4,2.1,2.2,3l24.8-14.3C90.1,27.1,89.5,26,88.9,24.9L88.9,24.9z M68.5,46.9l2.2,3.7l24.3-14l-2.2-3.8L68.5,46.9z"></path></svg>